<svg xmlns="http://www.w3.org/2000/svg" width="160.704" height="38.521"><g data-name="Group 516" fill="#505254"><path data-name="Path 2026" d="M108.135 9.64v28.881H96.776c-1.9 0-2.762-.875-2.762-2.789v-8.7c0-2.023.974-2.953 2.978-2.953h6.013v-9.626H99.16v4.813h-5.145v-6.673c0-1.969.974-2.953 2.978-2.953zm-5.129 18.377h-3.845v6.238h3.845z"/><path data-name="Path 2027" d="M91.598 33.708v4.813h-5.251q-2.926 0-2.925-2.953V14.453h-1.894V9.64h1.894V.012h5.143V9.64h3.033v4.813h-3.033v19.254z"/><path data-name="Path 2028" d="M132.993 4.827V9.64h3.549v4.8h-3.549v24.081h-5.144V14.444h-1.894v-4.8h1.894V2.969q0-2.953 2.925-2.953h5.767v4.815z"/><g data-name="Group 515"><path data-name="Rectangle 643" d="M138.958 9.636h5.143v28.885h-5.143z"/><path data-name="Rectangle 644" d="M138.958 0h5.143v4.807h-5.143z"/></g><path data-name="Path 2029" d="M157.942 9.64c1.9 0 2.762.929 2.762 2.789v26.092h-5.2V14.453h-3.784v24.068h-5.2V9.64z"/><path data-name="Path 2030" d="M121.98 9.64c1.9 0 2.707.929 2.707 2.789v6.832h-5.144v-4.808h-3.79v24.068h-5.2V9.64h11.428z"/></g><g data-name="Group 517" fill="#32a84b"><path data-name="Path 2031" d="M71.699 19.981h-20.26a.2.2 0 01-.149-.319l2.79-3.39h12.374a1 1 0 001-1.006v-1.695a1 1 0 00-1-1.006H30.477a.191.191 0 00-.149.07l-9.054 10.988a.19.19 0 01-.147.07H1.899a1.272 1.272 0 00-1.095.811l-.749 2.082a.548.548 0 00.51.811h1.446a.745.745 0 00.089-.009.154.154 0 00.048.011l13.632-.007h5.351a.2.2 0 01.147.07l9.054 10.99a.191.191 0 00.149.07h31.718a.179.179 0 00.069-.014h.033a1.329 1.329 0 001.322-1.335V36.14a1.329 1.329 0 00-1.322-1.337h-5.317v.014h-2.909l.009-.02-2.787-3.387a.194.194 0 01.147-.319h16.78a1 1 0 001-1.006v-1.691a1 1 0 00-1-1.006H48.076a.188.188 0 01-.147-.07l-1.366-1.659a.2.2 0 010-.247l1.363-1.656a.192.192 0 01.149-.072h23.629a1 1 0 001-1.006v-1.693a1 1 0 00-1.005-1.004zm-44.881 2.424l5.289-6.369a.768.768 0 01.592-.279h4.176a.779.779 0 01.59 1.28l-5.29 6.37a.869.869 0 01-.586.276H27.41a.778.778 0 01-.592-1.279zm10.057 12.926h-4.176a.768.768 0 01-.592-.279l-5.289-6.369a.779.779 0 01.59-1.28h4.177a.872.872 0 01.588.277l5.29 6.37a.779.779 0 01-.588 1.281zm11.575-1.28a.78.78 0 01-.59 1.28h-4.178a.768.768 0 01-.59-.279l-5.289-6.369a.779.779 0 01.59-1.28h4.178a.872.872 0 01.588.277zm0-17.013l-5.29 6.37a.87.87 0 01-.588.276h-4.178a.778.778 0 01-.59-1.278l5.289-6.369a.768.768 0 01.59-.279h4.178a.78.78 0 01.589 1.278z"/><path data-name="Path 2032" d="M5.559 20.018h1.456l9.723-.038v-.007h2.939a1.314 1.314 0 001.017-.481l8.357-10.154a1.314 1.314 0 011.015-.481h23.486a1.274 1.274 0 001.1-.813l.75-2.082a.548.548 0 00-.51-.811H28.354a1.313 1.313 0 00-1.015.482L18.962 15.8a1.325 1.325 0 01-1.015.481h-1.208l-10.009.038v.014a1.31 1.31 0 00-.934.8l-.75 2.082a.549.549 0 00.513.803z"/><path data-name="Path 2033" d="M20.406 31.098H5.582v.068a1.327 1.327 0 00-.748.743l-.75 2.082a.548.548 0 00.51.811h14.475a1.273 1.273 0 001.1-.811l.75-2.082a.548.548 0 00-.513-.811z"/></g></svg>